<svg width="32" height="32" viewBox="0 0 32 32" fill="none" xmlns="http://www.w3.org/2000/svg">
<g clip-path="url(#clip0_473_1146)">
<rect width="32" height="32" rx="16" fill="black"/>
<path d="M5.03705 7.9706C5.03705 6.05753 6.5764 4.49228 8.47908 4.49228C10.3817 4.49228 11.9211 6.05753 11.9211 7.9706C11.9211 9.88368 10.3817 11.4489 8.47908 11.4489C6.5764 11.4489 5.03705 9.88368 5.03705 7.9706ZM12.6286 -0.879801C14.168 -0.879801 15.4205 -2.14553 15.4205 -3.70111C15.4205 -5.25669 14.168 -6.52242 12.6286 -6.52242C11.0893 -6.52242 9.83676 -5.25669 9.83676 -3.70111C9.83676 -2.14553 11.0893 -0.879801 12.6286 -0.879801ZM19.1111 8.70492C20.0003 8.70492 20.7174 7.98027 20.7174 7.0817C20.7174 6.18313 20.0003 5.45848 19.1111 5.45848C18.2219 5.45848 17.5048 6.18313 17.5048 7.0817C17.5048 7.98027 18.2219 8.70492 19.1111 8.70492ZM13.7855 21.0047C15.5543 20.7728 16.8355 19.3041 16.6348 17.7389C16.434 16.164 14.8277 15.0818 13.0493 15.3137C11.2709 15.5456 9.9993 17.0143 10.2001 18.5795C10.4009 20.1447 12.0072 21.2366 13.7855 21.0047ZM26.5114 15.0529C27.458 13.9224 27.4389 12.3282 26.4636 11.4876C25.4884 10.647 23.9204 10.8789 22.9642 11.9997C22.0081 13.1301 22.0273 14.7244 23.0121 15.5746C23.9873 16.4152 25.5553 16.1833 26.5114 15.0529ZM27.2668 -6.20357C26.7887 -6.78329 25.9856 -6.91856 25.4788 -6.49343C24.9721 -6.0683 24.9434 -5.24703 25.431 -4.65765C25.9091 -4.06827 26.7122 -3.94266 27.219 -4.36779C27.7257 -4.79292 27.7544 -5.61419 27.2763 -6.20357H27.2668ZM8.16355 -14.4839C7.29349 -14.3003 6.71981 -13.5274 6.87279 -12.7544C7.03533 -11.9911 7.86716 -11.5177 8.73723 -11.7013C9.6073 -11.8848 10.181 -12.6578 10.0184 -13.4211C9.85588 -14.1941 9.02406 -14.6675 8.16355 -14.4839ZM1.75757 18.6375C2.67545 19.4008 3.95663 19.3621 4.61635 18.5505C5.27607 17.7389 5.07529 16.4635 4.15742 15.7002C3.23955 14.9369 1.95835 14.9756 1.29863 15.7872C0.638906 16.5988 0.849262 17.8742 1.75757 18.6375ZM7.91497 27.0338C9.22485 27.2463 10.4104 26.6666 10.5634 25.7197C10.7164 24.7729 9.77939 23.8356 8.47908 23.6134C7.16919 23.3912 5.98361 23.9806 5.82107 24.9274C5.66809 25.8647 6.60509 26.8115 7.91497 27.0241V27.0338ZM21.7787 23.9612C22.5149 23.6521 22.926 22.9757 22.7157 22.4443C22.5053 21.9226 21.7309 21.739 20.9946 22.0482C20.2584 22.3573 19.8377 23.0337 20.0577 23.5651C20.2776 24.0868 21.052 24.2704 21.7787 23.9612ZM32.0665 17.0626C32.8123 15.9611 32.7931 14.6181 32.0091 14.077C31.2347 13.5359 29.9917 13.9997 29.2364 15.1012C28.481 16.2026 28.5097 17.5457 29.2842 18.0867C30.0682 18.6278 31.3112 18.164 32.0569 17.0626H32.0665ZM34.0074 1.7386C33.9787 0.395584 33.1851 -0.676899 32.2386 -0.657575C31.292 -0.628589 30.5558 0.47288 30.5845 1.8159C30.6132 3.15892 31.4068 4.23141 32.3533 4.20242C33.2999 4.1831 34.0456 3.07196 34.017 1.7386H34.0074ZM33.4528 -6.49343C32.9174 -7.72051 31.7797 -8.40651 30.9191 -8.02003C30.0586 -7.63355 29.7814 -6.32918 30.3168 -5.1021C30.8522 -3.87503 31.99 -3.18902 32.8505 -3.5755C33.711 -3.96198 33.9883 -5.26636 33.4528 -6.49343ZM23.1841 -14.2617C22.1229 -15.0636 20.8034 -15.1023 20.2297 -14.339C19.6656 -13.5757 20.0672 -12.3003 21.1285 -11.4984C22.1898 -10.6964 23.5092 -10.6578 24.0733 -11.4211C24.6375 -12.1844 24.2454 -13.4597 23.1841 -14.2617ZM15.9081 -18.9188C14.6078 -19.1603 13.4031 -18.5903 13.2405 -17.6531C13.0684 -16.7158 13.9959 -15.7593 15.3058 -15.5178C16.6156 -15.2762 17.8108 -15.8463 17.9733 -16.7835C18.1454 -17.7207 17.218 -18.6772 15.9177 -18.9188H15.9081ZM-3.29072 -8.9186C-4.28509 -8.02969 -4.59106 -6.73498 -3.96002 -6.01033C-3.33854 -5.29534 -2.01909 -5.43061 -1.02473 -6.31952C-0.0303692 -7.20842 0.275595 -8.50313 -0.345881 -9.21812C-0.967357 -9.93311 -2.28681 -9.79784 -3.28117 -8.90894L-3.29072 -8.9186ZM1.43248 27.0724C2.57026 27.7584 3.75586 27.9227 4.0905 27.4396C4.41558 26.9468 3.76541 25.9999 2.62763 25.3043C1.48985 24.6183 0.294704 24.454 -0.0303755 24.9468C-0.355455 25.4299 0.294703 26.3864 1.43248 27.0724ZM21.1189 28.7439C22.381 28.3285 23.2702 27.5169 23.1268 26.9468C22.9738 26.3767 21.8265 26.2608 20.574 26.6763C19.3119 27.1014 18.4131 27.9033 18.5661 28.4734C18.7191 29.0435 19.8664 29.1594 21.1189 28.7439ZM29.6571 22.9661C30.6227 22.0482 31.1008 20.937 30.7279 20.4829C30.355 20.0288 29.2651 20.4056 28.2994 21.3235C27.3337 22.2414 26.8556 23.3525 27.2285 23.8066C27.6014 24.2608 28.6914 23.8839 29.6571 22.9661ZM36.3881 7.41987C36.5698 6.09617 36.2447 4.92707 35.671 4.81113C35.0974 4.69518 34.4855 5.68071 34.3134 7.01407C34.1317 8.33776 34.4568 9.50686 35.0305 9.62281C35.6041 9.73875 36.216 8.74357 36.3881 7.41987ZM35.9674 14.5504C36.2925 13.7871 36.2925 13.0432 35.9674 12.8789C35.6519 12.7147 35.1261 13.1978 34.801 13.9611C34.4759 14.7244 34.4759 15.4683 34.801 15.6326C35.1261 15.7968 35.6519 15.3137 35.977 14.5504H35.9674ZM36.9236 -0.580279C36.761 -1.3629 36.3403 -1.95229 35.9961 -1.89431C35.6519 -1.83634 35.5085 -1.16 35.6806 -0.377376C35.8431 0.405247 36.2638 0.994629 36.608 0.936657C36.9522 0.878685 37.0957 0.202344 36.9331 -0.570617L36.9236 -0.580279ZM30.8522 -13.682C29.963 -14.6675 28.8635 -15.1699 28.4141 -14.8028C27.9552 -14.4259 28.3185 -13.3245 29.2077 -12.339C30.1064 -11.3438 31.1964 -10.8413 31.6458 -11.2182C32.0952 -11.5853 31.7414 -12.6964 30.8522 -13.682ZM22.5244 -18.5903C21.836 -18.9574 21.1381 -19.0057 20.966 -18.7159C20.7939 -18.426 21.205 -17.8849 21.8838 -17.5178C22.5722 -17.1506 23.2702 -17.0927 23.4423 -17.3922C23.6144 -17.6917 23.2033 -18.2231 22.5244 -18.5903ZM1.94879 -18.5226C0.763209 -17.9236 -0.0112439 -16.996 0.218224 -16.455C0.447692 -15.9139 1.59503 -15.9525 2.78061 -16.5516C3.9662 -17.1506 4.74065 -18.0685 4.51118 -18.6193C4.28171 -19.1603 3.13438 -19.1217 1.94879 -18.5226ZM-9.50549 -7.20842C-9.88793 -6.60938 -9.98355 -5.97168 -9.73496 -5.78811C-9.47681 -5.60453 -8.97007 -5.9427 -8.58762 -6.5514C-8.21474 -7.16011 -8.10956 -7.7978 -8.35815 -7.98138C-8.60674 -8.16496 -9.12304 -7.82679 -9.50549 -7.21808V-7.20842ZM-9.68715 17.1302C-9.29514 17.9321 -8.68323 18.4636 -8.31991 18.309C-7.95658 18.1544 -7.98527 17.3814 -8.37727 16.5698C-8.76928 15.7679 -9.38119 15.2364 -9.74451 15.391C-10.1078 15.5456 -10.0792 16.3282 -9.68715 17.1302ZM-5.42288 23.6231C-4.48588 24.5699 -3.37678 25.0241 -2.93697 24.6279C-2.49715 24.2318 -2.90828 23.1496 -3.84527 22.2028C-4.78227 21.2559 -5.89137 20.8018 -6.33118 21.1882C-6.771 21.5844 -6.35987 22.6665 -5.42288 23.6134V23.6231ZM10.8789 29.9903C11.6916 30 12.38 29.7198 12.3991 29.3623C12.4278 28.9952 11.7872 28.6956 10.9745 28.686C10.1618 28.6763 9.47344 28.9565 9.45432 29.3237C9.42564 29.6812 10.0662 29.9903 10.8789 30V29.9903Z" fill="url(#paint0_radial_473_1146)"/>
</g>
<defs>
<radialGradient id="paint0_radial_473_1146" cx="0" cy="0" r="1" gradientUnits="userSpaceOnUse" gradientTransform="translate(14.3974 5.1006) scale(26.1307 26.9344)">
<stop stop-color="#FFDD00"/>
<stop offset="0.1" stop-color="#FCD201"/>
<stop offset="0.29" stop-color="#F5B404"/>
<stop offset="0.52" stop-color="#E98509"/>
<stop offset="0.81" stop-color="#D94411"/>
<stop offset="1" stop-color="#CE1417"/>
</radialGradient>
<clipPath id="clip0_473_1146">
<rect width="32" height="32" rx="16" fill="white"/>
</clipPath>
</defs>
</svg>
