<svg width="212" height="52" viewBox="0 0 212 52" fill="none" xmlns="http://www.w3.org/2000/svg">
<g clip-path="url(#clip0_1002_81)">
<path d="M177.95 28.42C177.95 26.44 179.56 24.82 181.55 24.82C183.54 24.82 185.15 26.44 185.15 28.42C185.15 30.4 183.54 32.02 181.55 32.02C179.56 32.02 177.95 30.4 177.95 28.42ZM185.89 19.27C187.51 19.27 188.81 17.96 188.81 16.35C188.81 14.74 187.5 13.42 185.89 13.42C184.28 13.42 182.97 14.73 182.97 16.35C182.97 17.97 184.28 19.27 185.89 19.27ZM192.67 29.19C193.6 29.19 194.35 28.44 194.35 27.51C194.35 26.58 193.6 25.83 192.67 25.83C191.74 25.83 190.99 26.58 190.99 27.51C190.99 28.44 191.74 29.19 192.67 29.19ZM187.1 41.92C188.95 41.68 190.29 40.16 190.08 38.54C189.87 36.91 188.19 35.79 186.33 36.03C184.47 36.27 183.14 37.79 183.35 39.41C183.56 41.03 185.24 42.16 187.1 41.92ZM200.41 35.76C201.4 34.59 201.38 32.94 200.36 32.07C199.34 31.2 197.7 31.44 196.7 32.6C195.7 33.77 195.73 35.42 196.75 36.3C197.77 37.17 199.41 36.93 200.41 35.76ZM201.2 13.76C200.7 13.16 199.86 13.02 199.33 13.46C198.8 13.9 198.77 14.75 199.28 15.36C199.78 15.97 200.62 16.1 201.15 15.66C201.68 15.22 201.71 14.37 201.21 13.76H201.2ZM181.23 5.18999C180.32 5.37999 179.72 6.17999 179.88 6.97999C180.05 7.76999 180.92 8.25999 181.83 8.06999C182.74 7.87999 183.34 7.07999 183.17 6.28999C183.01 5.49999 182.13 4.99999 181.23 5.18999ZM174.53 39.47C175.49 40.26 176.83 40.22 177.52 39.38C178.21 38.54 177.99 37.22 177.04 36.43C176.08 35.64 174.74 35.68 174.05 36.52C173.36 37.36 173.58 38.68 174.53 39.47ZM180.97 48.16C182.34 48.38 183.58 47.78 183.74 46.8C183.9 45.82 182.92 44.84 181.56 44.62C180.19 44.39 178.94 45 178.78 45.98C178.62 46.95 179.6 47.93 180.97 48.15V48.16ZM195.48 44.98C196.25 44.66 196.69 43.96 196.45 43.41C196.23 42.87 195.42 42.68 194.65 43C193.88 43.32 193.44 44.02 193.67 44.57C193.9 45.11 194.71 45.3 195.47 44.98H195.48ZM206.24 37.84C207.02 36.7 207 35.31 206.18 34.75C205.37 34.19 204.07 34.67 203.28 35.81C202.49 36.95 202.52 38.34 203.33 38.9C204.14 39.46 205.45 38.98 206.23 37.84H206.24ZM208.27 21.98C208.24 20.59 207.41 19.49 206.42 19.51C205.43 19.54 204.65 20.68 204.69 22.07C204.72 23.46 205.55 24.57 206.54 24.54C207.53 24.52 208.31 23.37 208.28 21.99L208.27 21.98ZM207.69 13.46C207.13 12.19 205.94 11.48 205.04 11.88C204.14 12.27 203.85 13.63 204.41 14.9C204.97 16.17 206.16 16.88 207.06 16.48C207.96 16.08 208.25 14.73 207.69 13.46ZM196.95 5.41999C195.84 4.58999 194.46 4.54999 193.86 5.33999C193.27 6.12999 193.69 7.44999 194.8 8.27999C195.91 9.10999 197.29 9.14999 197.88 8.35999C198.47 7.56999 198.06 6.24999 196.95 5.41999ZM189.32 0.589987C187.96 0.339987 186.7 0.929987 186.53 1.89999C186.35 2.86999 187.32 3.85999 188.69 4.10999C190.06 4.35999 191.31 3.76999 191.48 2.79999C191.66 1.82999 190.69 0.839987 189.33 0.589987H189.32ZM169.25 10.94C168.21 11.86 167.89 13.2 168.55 13.95C169.2 14.69 170.58 14.55 171.62 13.63C172.66 12.71 172.98 11.37 172.33 10.63C171.68 9.88999 170.3 10.03 169.26 10.95L169.25 10.94ZM174.19 48.19C175.38 48.9 176.62 49.07 176.97 48.57C177.31 48.06 176.63 47.08 175.44 46.36C174.25 45.65 173 45.48 172.66 45.99C172.32 46.49 173 47.48 174.19 48.19ZM194.78 49.92C196.1 49.49 197.04 48.65 196.88 48.06C196.72 47.47 195.52 47.35 194.21 47.78C192.89 48.22 191.95 49.05 192.11 49.64C192.26 50.23 193.47 50.35 194.78 49.92ZM203.71 43.94C204.72 42.99 205.22 41.84 204.83 41.37C204.44 40.9 203.3 41.29 202.29 42.24C201.28 43.19 200.78 44.34 201.17 44.81C201.56 45.28 202.7 44.89 203.71 43.94ZM210.75 27.85C210.94 26.47 210.6 25.27 210 25.15C209.4 25.03 208.76 26.05 208.58 27.43C208.39 28.8 208.72 30.01 209.33 30.13C209.93 30.25 210.57 29.23 210.75 27.85ZM210.31 35.23C210.65 34.44 210.65 33.67 210.31 33.5C209.97 33.33 209.43 33.83 209.09 34.62C208.75 35.41 208.75 36.18 209.09 36.35C209.43 36.52 209.98 36.02 210.32 35.23H210.31ZM211.31 19.57C211.14 18.76 210.7 18.15 210.34 18.2C209.98 18.26 209.83 18.96 210 19.77C210.17 20.58 210.61 21.19 210.97 21.13C211.33 21.07 211.48 20.37 211.31 19.57ZM204.96 6.00999C204.03 4.98999 202.88 4.46999 202.41 4.84999C201.94 5.23999 202.31 6.37999 203.24 7.39999C204.18 8.42999 205.32 8.93999 205.79 8.55999C206.26 8.17999 205.89 7.02999 204.96 6.00999ZM196.25 0.929987C195.53 0.549987 194.8 0.499987 194.62 0.799987C194.44 1.09999 194.87 1.65999 195.58 2.03999C196.3 2.41999 197.03 2.47999 197.21 2.16999C197.39 1.85999 196.96 1.30999 196.25 0.929987ZM174.73 0.999987C173.49 1.61999 172.68 2.57999 172.92 3.13999C173.16 3.69999 174.36 3.65999 175.6 3.03999C176.84 2.41999 177.65 1.46999 177.41 0.909987C177.17 0.349987 175.97 0.389987 174.73 1.00999V0.999987ZM162.75 12.71C162.36 13.33 162.25 14 162.51 14.18C162.78 14.37 163.31 14.02 163.71 13.39C164.1 12.76 164.21 12.1 163.95 11.91C163.68 11.72 163.15 12.07 162.75 12.7V12.71ZM162.56 37.9C162.97 38.73 163.61 39.28 163.99 39.12C164.37 38.96 164.34 38.16 163.93 37.32C163.52 36.49 162.88 35.94 162.5 36.11C162.12 36.27 162.15 37.08 162.56 37.91V37.9ZM167.02 44.62C168 45.6 169.16 46.07 169.62 45.66C170.08 45.25 169.65 44.13 168.67 43.15C167.69 42.17 166.53 41.7 166.07 42.1C165.61 42.51 166.04 43.64 167.02 44.62ZM184.07 51.21C184.92 51.22 185.64 50.93 185.66 50.56C185.69 50.18 185.02 49.87 184.17 49.86C183.32 49.85 182.6 50.14 182.58 50.52C182.55 50.89 183.22 51.21 184.07 51.22V51.21Z" fill="url(#paint0_radial_1002_81)"/>
<path d="M0 32.67H2.48V26.6H9.02V24.29H2.48V21.42H12.59V19.07H0V32.67Z" fill="#625F5E"/>
<path d="M23.72 19.04H21.21V32.71H23.72V19.04Z" fill="#625F5E"/>
<path d="M48 22.98C48 20.55 46.31 19.1 43.49 19.1H34.2V32.67H36.68V26.92H42.11L45.84 32.67H48.58L44.87 26.83C46.73 26.39 48 24.86 48 22.98ZM36.68 21.42H43.49C44.39 21.42 45.46 21.69 45.46 22.98C45.46 24.04 44.8 24.57 43.49 24.57H36.68V21.42Z" fill="#625F5E"/>
<path d="M60.11 26.6H66.88V24.29H60.11V21.42H70.42V19.07H57.63V32.67H70.99V30.36H60.11V26.6Z" fill="#625F5E"/>
<path d="M88.77 27.56H92.12V28.71C91.47 29.73 89.58 30.74 87.18 30.74C83.67 30.74 81.23 28.74 81.23 25.89C81.23 23.04 83.73 21.05 87.18 21.05C89.39 21.05 91.34 21.89 92.41 23.3L92.53 23.46L94.46 22.08L94.33 21.9C92.74 19.82 90.27 18.72 87.18 18.72C82.26 18.72 78.68 21.75 78.68 25.91C78.68 30.07 82.25 33.08 87.18 33.08C90.47 33.08 93.03 31.86 94.59 29.54L94.63 29.49V25.23H88.77V27.55V27.56Z" fill="#625F5E"/>
<path d="M106.84 19.04H104.33V32.71H106.84V19.04Z" fill="#625F5E"/>
<path d="M121.55 19.07L114.63 32.67H117.28L118.99 29.32H125.69L127.4 32.67H130.08L123.1 19.07H121.55ZM124.56 27.16H120.1L122.34 22.78L124.56 27.16Z" fill="#625F5E"/>
<path d="M149.83 28.33L138.94 19.14L138.88 19.07H137.84V32.67H140.29V23.52L151.22 32.67H152.29V19.07H149.83V28.33Z" fill="#625F5E"/>
<path d="M161.11 19.07V21.32H166.68V32.67H169.16V21.32H174.72V19.07H161.11Z" fill="#625F5E"/>
</g>
<defs>
<radialGradient id="paint0_radial_1002_81" cx="0" cy="0" r="1" gradientUnits="userSpaceOnUse" gradientTransform="translate(187.74 25.4496) scale(27.33 27.8766)">
<stop stop-color="#FFDD00"/>
<stop offset="0.1" stop-color="#FCD201"/>
<stop offset="0.29" stop-color="#F5B404"/>
<stop offset="0.52" stop-color="#E98509"/>
<stop offset="0.81" stop-color="#D94411"/>
<stop offset="1" stop-color="#CE1417"/>
</radialGradient>
<clipPath id="clip0_1002_81">
<rect width="211.38" height="50.71" fill="white" transform="translate(0 0.5)"/>
</clipPath>
</defs>
</svg>
