<svg width="212" height="52" viewBox="0 0 212 52" fill="none" xmlns="http://www.w3.org/2000/svg">
<g clip-path="url(#clip0_1002_80)">
<path d="M177.95 28.42C177.95 26.44 179.56 24.82 181.55 24.82C183.54 24.82 185.15 26.44 185.15 28.42C185.15 30.4 183.54 32.02 181.55 32.02C179.56 32.02 177.95 30.4 177.95 28.42ZM185.89 19.26C187.5 19.26 188.81 17.95 188.81 16.34C188.81 14.73 187.5 13.42 185.89 13.42C184.28 13.42 182.97 14.73 182.97 16.34C182.97 17.95 184.28 19.26 185.89 19.26ZM192.67 29.18C193.6 29.18 194.35 28.43 194.35 27.5C194.35 26.57 193.6 25.82 192.67 25.82C191.74 25.82 190.99 26.57 190.99 27.5C190.99 28.43 191.74 29.18 192.67 29.18ZM187.1 41.91C188.95 41.67 190.29 40.15 190.08 38.53C189.87 36.9 188.19 35.78 186.33 36.02C184.47 36.26 183.14 37.78 183.35 39.4C183.56 41.02 185.24 42.15 187.1 41.91ZM200.41 35.75C201.4 34.58 201.38 32.93 200.36 32.06C199.34 31.19 197.7 31.43 196.7 32.59C195.7 33.76 195.72 35.41 196.75 36.29C197.77 37.16 199.41 36.92 200.41 35.75ZM201.2 13.75C200.7 13.15 199.86 13.01 199.33 13.45C198.8 13.89 198.77 14.74 199.28 15.35C199.78 15.96 200.62 16.09 201.15 15.65C201.68 15.21 201.71 14.36 201.21 13.75H201.2ZM181.22 5.18001C180.31 5.37001 179.71 6.17001 179.87 6.97001C180.04 7.76001 180.91 8.25001 181.82 8.06001C182.73 7.87001 183.33 7.07001 183.16 6.28001C182.99 5.48001 182.12 4.99001 181.22 5.18001ZM174.52 39.46C175.48 40.25 176.82 40.21 177.51 39.37C178.2 38.53 177.99 37.21 177.03 36.42C176.07 35.63 174.73 35.67 174.04 36.51C173.35 37.35 173.57 38.67 174.52 39.46ZM180.96 48.15C182.33 48.37 183.57 47.77 183.73 46.79C183.89 45.81 182.91 44.84 181.55 44.61C180.18 44.38 178.94 44.99 178.77 45.97C178.61 46.94 179.59 47.92 180.96 48.14V48.15ZM195.46 44.97C196.23 44.65 196.66 43.95 196.44 43.4C196.22 42.86 195.41 42.67 194.64 42.99C193.87 43.31 193.43 44.01 193.66 44.56C193.89 45.1 194.7 45.29 195.46 44.97ZM206.22 37.83C207 36.69 206.98 35.3 206.16 34.74C205.35 34.18 204.05 34.66 203.26 35.8C202.47 36.94 202.5 38.33 203.31 38.89C204.13 39.45 205.43 38.97 206.21 37.83H206.22ZM208.25 21.97C208.22 20.58 207.39 19.47 206.4 19.49C205.41 19.52 204.64 20.66 204.67 22.05C204.7 23.44 205.53 24.55 206.52 24.52C207.51 24.5 208.29 23.35 208.26 21.97H208.25ZM207.67 13.45C207.11 12.18 205.92 11.47 205.02 11.87C204.12 12.27 203.83 13.62 204.39 14.89C204.95 16.16 206.14 16.87 207.04 16.47C207.94 16.07 208.23 14.72 207.67 13.45ZM196.93 5.41001C195.82 4.58001 194.44 4.54001 193.84 5.33001C193.25 6.12001 193.67 7.44001 194.78 8.27001C195.89 9.10001 197.27 9.14001 197.86 8.35001C198.45 7.56001 198.04 6.24001 196.93 5.41001ZM189.32 0.590008C187.96 0.340008 186.7 0.930008 186.53 1.90001C186.35 2.87001 187.32 3.86001 188.69 4.11001C190.06 4.36001 191.31 3.77001 191.48 2.80001C191.66 1.83001 190.69 0.840008 189.33 0.590008H189.32ZM169.24 10.94C168.2 11.86 167.88 13.2 168.54 13.95C169.19 14.69 170.57 14.55 171.61 13.63C172.65 12.71 172.97 11.37 172.32 10.63C171.67 9.89001 170.29 10.03 169.25 10.95L169.24 10.94ZM174.18 48.19C175.37 48.9 176.61 49.07 176.96 48.57C177.3 48.06 176.62 47.08 175.43 46.36C174.24 45.65 172.99 45.48 172.65 45.99C172.31 46.49 172.99 47.48 174.18 48.19ZM194.77 49.92C196.09 49.49 197.02 48.65 196.87 48.06C196.71 47.47 195.51 47.35 194.2 47.78C192.88 48.22 191.94 49.05 192.1 49.64C192.26 50.23 193.46 50.35 194.77 49.92ZM203.7 43.94C204.71 42.99 205.21 41.84 204.82 41.37C204.43 40.9 203.29 41.29 202.28 42.24C201.27 43.19 200.77 44.34 201.16 44.81C201.55 45.28 202.69 44.89 203.7 43.94ZM210.74 27.85C210.93 26.48 210.59 25.27 209.99 25.15C209.39 25.03 208.75 26.05 208.57 27.43C208.38 28.8 208.72 30.01 209.32 30.13C209.92 30.25 210.56 29.22 210.74 27.85ZM210.3 35.23C210.64 34.44 210.64 33.67 210.3 33.5C209.97 33.33 209.42 33.83 209.08 34.62C208.74 35.41 208.74 36.18 209.08 36.35C209.42 36.52 209.97 36.02 210.31 35.23H210.3ZM211.3 19.57C211.13 18.76 210.69 18.15 210.33 18.21C209.97 18.27 209.82 18.97 210 19.78C210.17 20.59 210.61 21.2 210.97 21.14C211.33 21.08 211.48 20.38 211.31 19.58L211.3 19.57ZM204.95 6.01001C204.02 4.99001 202.87 4.47001 202.4 4.85001C201.92 5.24001 202.3 6.38001 203.23 7.40001C204.17 8.43001 205.31 8.95001 205.78 8.56001C206.25 8.18001 205.88 7.03001 204.95 6.01001ZM196.24 0.930008C195.52 0.550008 194.79 0.500008 194.61 0.800008C194.43 1.10001 194.86 1.66001 195.57 2.04001C196.29 2.42001 197.02 2.48001 197.2 2.17001C197.38 1.86001 196.95 1.31001 196.24 0.930008ZM174.72 1.00001C173.48 1.62001 172.67 2.58001 172.91 3.14001C173.15 3.70001 174.35 3.66001 175.59 3.04001C176.83 2.42001 177.64 1.47001 177.4 0.900008C177.16 0.340008 175.96 0.380008 174.72 1.00001ZM162.74 12.71C162.34 13.33 162.24 13.99 162.5 14.18C162.77 14.37 163.3 14.02 163.7 13.39C164.09 12.76 164.2 12.1 163.94 11.91C163.68 11.72 163.14 12.07 162.74 12.7V12.71ZM162.55 37.9C162.96 38.73 163.6 39.28 163.98 39.12C164.36 38.96 164.33 38.16 163.92 37.32C163.51 36.49 162.87 35.94 162.49 36.1C162.11 36.26 162.14 37.07 162.55 37.9ZM167.01 44.62C167.99 45.6 169.15 46.07 169.61 45.66C170.07 45.25 169.64 44.13 168.66 43.15C167.68 42.17 166.52 41.7 166.06 42.1C165.6 42.51 166.03 43.63 167.01 44.61V44.62ZM184.06 51.21C184.91 51.22 185.63 50.93 185.65 50.56C185.68 50.18 185.01 49.87 184.16 49.86C183.31 49.85 182.59 50.14 182.57 50.52C182.54 50.89 183.21 51.21 184.06 51.22V51.21Z" fill="url(#paint0_radial_1002_80)"/>
<path d="M0 32.67H2.48V26.6H9.02V24.29H2.48V21.42H12.59V19.07H0V32.67Z" fill="#ACA9A8"/>
<path d="M23.72 19.04H21.21V32.71H23.72V19.04Z" fill="#ACA9A8"/>
<path d="M48 22.98C48 20.55 46.31 19.1 43.49 19.1H34.2V32.67H36.68V26.92H42.11L45.84 32.67H48.58L44.87 26.83C46.73 26.4 48 24.86 48 22.98ZM36.68 21.42H43.49C44.39 21.42 45.46 21.69 45.46 22.98C45.46 24.04 44.8 24.57 43.49 24.57H36.68V21.42Z" fill="#ACA9A8"/>
<path d="M60.11 26.6H66.88V24.29H60.11V21.42H70.42V19.07H57.63V32.67H70.99V30.36H60.11V26.6Z" fill="#ACA9A8"/>
<path d="M88.77 27.55H92.12V28.7C91.47 29.72 89.58 30.73 87.18 30.73C83.67 30.73 81.23 28.73 81.23 25.88C81.23 23.03 83.73 21.04 87.18 21.04C89.39 21.04 91.34 21.88 92.41 23.29L92.53 23.45L94.46 22.07L94.33 21.89C92.74 19.81 90.27 18.71 87.18 18.71C82.26 18.71 78.68 21.74 78.68 25.9C78.68 30.06 82.25 33.07 87.18 33.07C90.47 33.07 93.03 31.85 94.59 29.53L94.63 29.48V25.22H88.77V27.54V27.55Z" fill="#ACA9A8"/>
<path d="M106.84 19.04H104.33V32.71H106.84V19.04Z" fill="#ACA9A8"/>
<path d="M121.55 19.07L114.63 32.67H117.28L118.99 29.32H125.69L127.4 32.67H130.08L123.1 19.07H121.55ZM124.56 27.16H120.1L122.34 22.78L124.56 27.16Z" fill="#ACA9A8"/>
<path d="M149.83 28.33L138.94 19.14L138.88 19.07H137.84V32.67H140.29V23.52L151.22 32.67H152.29V19.07H149.83V28.33Z" fill="#ACA9A8"/>
<path d="M161.11 19.07V21.32H166.68V32.67H169.16V21.32H174.72V19.07H161.11Z" fill="#ACA9A8"/>
</g>
<defs>
<radialGradient id="paint0_radial_1002_80" cx="0" cy="0" r="1" gradientUnits="userSpaceOnUse" gradientTransform="translate(187.74 25.4496) scale(27.33 27.8766)">
<stop stop-color="#FFDD00"/>
<stop offset="0.1" stop-color="#FCD201"/>
<stop offset="0.29" stop-color="#F5B404"/>
<stop offset="0.52" stop-color="#E98509"/>
<stop offset="0.81" stop-color="#D94411"/>
<stop offset="1" stop-color="#CE1417"/>
</radialGradient>
<clipPath id="clip0_1002_80">
<rect width="211.38" height="50.71" fill="white" transform="translate(0 0.5)"/>
</clipPath>
</defs>
</svg>
