<?xml version="1.0" encoding="UTF-8"?>
<svg id="Layer_1" data-name="Layer 1" xmlns="http://www.w3.org/2000/svg" xmlns:xlink="http://www.w3.org/1999/xlink" viewBox="0 0 541.42 535.75">
  <defs>
    <style>
      .cls-1 {
        fill: url(#linear-gradient-2);
        fill-rule: evenodd;
      }

      .cls-2 {
        fill: #2d2e30;
      }

      .cls-3 {
        fill: url(#radial-gradient-4);
      }

      .cls-4 {
        fill: url(#radial-gradient-3);
      }

      .cls-5 {
        fill: url(#radial-gradient-2);
      }

      .cls-6 {
        fill: url(#linear-gradient-4);
      }

      .cls-7 {
        fill: url(#linear-gradient-3);
      }

      .cls-8 {
        fill: #231f20;
      }

      .cls-9 {
        fill: url(#radial-gradient);
      }

      .cls-10 {
        fill: url(#linear-gradient);
      }

      .cls-11 {
        fill: #e71d24;
      }

      .cls-12 {
        fill: #f06225;
      }

      .cls-13 {
        fill: #f9f9f9;
      }

      .cls-14 {
        fill: #ef953c;
      }

      .cls-15 {
        fill: #878584;
      }

      .cls-16 {
        fill: #5c5e5d;
      }

      .cls-17 {
        fill: #ec242b;
      }
    </style>
    <linearGradient id="linear-gradient" x1="480.78" y1="198.04" x2="95.27" y2="70.81" gradientUnits="userSpaceOnUse">
      <stop offset="0" stop-color="#222021"/>
      <stop offset=".66" stop-color="#313336"/>
      <stop offset="1" stop-color="#383d41"/>
    </linearGradient>
    <linearGradient id="linear-gradient-2" x1="311.25" y1="387.41" x2="311.25" y2="202.33" gradientTransform="translate(0 401.18) scale(1 -1)" gradientUnits="userSpaceOnUse">
      <stop offset="0" stop-color="#f3ff1b"/>
      <stop offset=".51" stop-color="#dc5b26"/>
      <stop offset="1" stop-color="#d32027"/>
    </linearGradient>
    <linearGradient id="linear-gradient-3" x1="4.33" y1="283.85" x2="246.06" y2="283.85" gradientUnits="userSpaceOnUse">
      <stop offset="0" stop-color="#222021"/>
      <stop offset="1" stop-color="#383d41"/>
    </linearGradient>
    <linearGradient id="linear-gradient-4" x1="-47.99" y1="329.18" x2="355.44" y2="358.6" xlink:href="#linear-gradient-3"/>
    <radialGradient id="radial-gradient" cx="-326.59" cy="740.29" fx="-326.59" fy="740.29" r=".2" gradientTransform="translate(532741.6 1207275.88) scale(1630.42 -1630.42)" gradientUnits="userSpaceOnUse">
      <stop offset="0" stop-color="#de6225"/>
      <stop offset=".51" stop-color="#dc5b26"/>
      <stop offset="1" stop-color="#d32027"/>
    </radialGradient>
    <radialGradient id="radial-gradient-2" cx="335.77" cy="351.9" fx="335.77" fy="351.9" r="211.94" gradientUnits="userSpaceOnUse">
      <stop offset="0" stop-color="#ec921e"/>
      <stop offset=".51" stop-color="#dc5b26"/>
      <stop offset="1" stop-color="#d32027"/>
    </radialGradient>
    <radialGradient id="radial-gradient-3" cx="391.82" cy="319.54" fx="391.82" fy="319.54" r="211.94" xlink:href="#radial-gradient-2"/>
    <radialGradient id="radial-gradient-4" cx="290.34" cy="515.23" fx="290.34" fy="515.23" r="241.96" gradientUnits="userSpaceOnUse">
      <stop offset="0" stop-color="#d83727"/>
      <stop offset=".51" stop-color="#dc5b26"/>
      <stop offset="1" stop-color="#d32027"/>
    </radialGradient>
  </defs>
  <g>
    <path class="cls-10" d="M408.03,51.35v199.36c0,6.59-5.15,11.92-11.5,11.92h-170.56c-6.36,0-11.49-5.33-11.49-11.92V24.26c0-6.59,5.14-11.92,11.49-11.92h144.43l37.63,39.01Z"/>
    <path class="cls-16" d="M408.02,51.34h-37.63V12.34l37.63,39.01Z"/>
    <path class="cls-8" d="M370.39,51.34h37.63v39.01l-37.63-39.01Z"/>
    <g id="Layer_2" data-name="Layer 2">
      <g id="Layer_1-2" data-name="Layer 1-2">
        <path class="cls-1" d="M297.37,187.12l2.97-2.99,23.55,23.55,11.9-11.9-23.53-23.55,2.97-2.99,23.55,23.55,25.13-25.13c0-8.95-.88-17.25-6.59-24.52-4.38,46.34-34.42,24.12-22.35,7.33,25.03-34.74-16.68-66.61-12.3-95.83-37.31,30.95,2.63,53.28-14.03,70.91-1.33,1.41-28.54,13.33-18.96-30.08-6.57,9.02-24.35,29.91-9.63,48.56,26.82,33.94-.4,50.71-17.25,3.45-2.77,6.37-4.2,13.24-4.21,20.18l52.66,52.66,9.65-9.67-23.53-23.53Z"/>
      </g>
    </g>
  </g>
  <g>
    <path class="cls-7" d="M246.06,176.28v248.97c0,8.23-6.43,14.88-14.36,14.88H18.7c-7.94,0-14.36-6.65-14.36-14.88V142.45c0-8.23,6.43-14.88,14.36-14.88h180.37l47,48.71Z"/>
    <path class="cls-16" d="M246.06,176.28h-47v-48.71l47,48.71Z"/>
    <path class="cls-8" d="M199.06,176.28h47v48.71l-47-48.71Z"/>
    <g>
      <path class="cls-14" d="M199.95,346.84c-.99-1-.96-2.23.05-2.61,2.07-.77,3.25,1.25,1.56,2.66-.62.52-1.05.51-1.61-.05h0ZM205.62,346.33c-.55-1.04-.54-1.61.04-2.31,1.71-2.08,5.44-.05,4.04,2.21-1.02,1.65-3.23,1.71-4.07.11h0ZM194.31,344.96c-.48-.79.96-1.98,1.78-1.47.28.18.51.74.51,1.25,0,1.1-1.66,1.25-2.29.21h0ZM191.68,242.4c-.49-1.28.09-1.86,1.34-1.38.56.22.82.8.6,1.38-.49,1.29-1.46,1.28-1.95,0h0ZM189.32,238.42c-.93-.93-.4-2.81.79-2.81,1.47,0,2.17,1.51,1.18,2.52-.82.83-1.35.92-1.97.3h0ZM183.8,233.1c-.82-1.55.53-3.57,2.17-3.25,1.8.36,2.7,2.19,1.68,3.42-1.14,1.39-3.07,1.3-3.86-.18h0Z"/>
      <path class="cls-15" d="M213.45,344.24c-.96-1.82-.82-2.94.51-4.16,1.53-1.4,2.87-1.36,4.19.11,1.25,1.4,1.38,3.43.29,4.52-1.22,1.23-4.23.95-4.99-.48h0ZM220.64,337.03c-.77-.73-1.41-2.06-1.41-2.95,0-1.97,2.65-4.82,4.5-4.82s4.5,2.82,4.5,4.73-2.51,4.36-4.58,4.36c-.88,0-2.24-.6-3.01-1.32h0ZM53.58,330.41c-9.64-29.41-21.4-66.21-21.4-66.86,0-.81,1.84-.93,12.34-.78l12.34.18.86,2.92c.48,1.61,2.69,9.22,4.92,16.88l4.05,13.96,1.14-3.54c.62-1.95,3.16-9.61,5.64-17.01l4.5-13.5,20.69.36,5.55,16.55c4.76,14.22,5.64,16.29,6.16,14.93.33-.9,2.59-8.37,5.02-16.62l4.41-14.99,12.59-.23c6.94-.13,16.83-.12,21.97,0l9.45.23,4.99,8.37c2.74,4.6,5.15,8.37,5.35,8.37.2-.01,2.56-3.74,5.26-8.31l4.89-8.24,12.91-.18c8.61-.12,12.92.05,12.92.5,0,.37-4.92,8.11-10.92,17.2-6.01,9.09-10.92,16.88-10.92,17.27s5.2,8.7,11.57,18.5c6.36,9.8,11.57,17.92,11.57,18.11s-5.99.28-13.3.19l-13.3-.18-5.33-8.76c-2.93-4.82-5.54-8.83-5.8-8.89-.26-.08-2.92,3.93-5.92,8.89l-5.46,9.09h-61.88s-2.56-7.26-2.56-7.26c-1.41-4.01-4.11-11.75-6.01-17.2-1.9-5.45-3.62-9.87-3.82-9.87-.21,0-.75,1.23-1.2,2.74-.45,1.51-3.13,9.22-5.96,17.2l-5.15,14.48h-20.75l-1.38-4.49ZM142.25,322.43c2.32-1.72,4.83-4.95,10.15-13.05,3.87-5.93,7.07-11.1,7.07-11.42s-2.8-4.98-6.23-10.26l-6.23-9.67-2.15,7.34c-3.09,10.52-7.13,26.29-8.22,32-1.48,7.79.12,9.22,5.68,5.12l-.06-.05ZM223.21,324.72c-1.59-.93-2.63-4.63-1.88-6.62.81-2.15,3.09-3.73,5.39-3.73s5.59,3.14,5.59,5.17c0,1.88-1.65,4.97-2.92,5.46-1.55.6-4.96.45-6.19-.27v-.02ZM217.31,312.39c-2.6-.78-4.17-2.41-4.99-5.18-1.3-4.4,2.43-9.09,7.26-9.09,4.71,0,8.16,5.71,6.14,10.06-1.65,3.5-5.05,5.21-8.42,4.21h0ZM144.06,254.29c-1.7-1.2-3.35-4.22-3.35-6.13,0-5.21,6.09-8.7,10.86-6.2,4.02,2.1,4.61,8.76,1.05,11.88-2.04,1.77-6.38,2.01-8.55.47v-.02ZM152.16,238.19c-2.78-1.89-3.6-4.21-2.47-6.95,1.95-4.77,8.67-4.58,10.28.29.66,2.01.6,2.64-.42,4.4-.66,1.13-2.09,2.43-3.21,2.89-1.81.75-2.24.67-4.16-.63h-.02ZM164.11,229.95c-1.66-1.85-1.52-5.11.29-6.56,3.02-2.47,7.13-.54,7.13,3.35s-4.86,6.07-7.39,3.24l-.04-.03ZM176.13,229.82c-1.39-1.4-.92-4.12.88-5.08,2.81-1.53,5.62,1.22,4.27,4.19-.83,1.83-3.73,2.34-5.15.9h0Z"/>
      <path class="cls-12" d="M213.45,344.24c-.96-1.82-.82-2.94.51-4.16,1.53-1.4,2.87-1.36,4.19.11,1.25,1.4,1.38,3.43.29,4.52-1.22,1.23-4.23.95-4.99-.48h0ZM220.64,337.03c-.77-.73-1.41-2.06-1.41-2.95,0-1.97,2.65-4.82,4.5-4.82s4.5,2.82,4.5,4.73-2.51,4.36-4.58,4.36c-.88,0-2.24-.6-3.01-1.32h0ZM54.87,333c-1.86-4.33-22.49-69.46-22.17-70.11.23-.37,5.28-.63,12.21-.63h11.82l1.91,6.33c1.05,3.48,3.27,11.04,4.93,16.75s3.09,10.45,3.17,10.58c.08.1,2.53-6.88,5.44-15.58,2.91-8.7,5.57-16.29,5.9-16.94.55-1.04,1.58-1.14,10.67-.97l10.09.18,5.46,16.36c3.01,9.02,5.62,16.36,5.8,16.36.19,0,2.51-7.4,5.15-16.36l4.8-16.36,7.97-.18c4.39-.1,8.22.08,8.55.4.34.34,1.55.23,2.94-.28,3.73-1.34,7.58-1.15,9.19.47,1.88,1.9,1.48,4.42-3.29,20.71-4.13,14.09-7.84,28.3-8.93,34.6-.73,4.08-.17,6.26,1.62,6.26,1.23,0,5.83-3.18,7.97-5.51.89-.97,2.42-2.34,3.41-3.06l1.81-1.31,2.96,2.8-3.93,3.76c-5.31,5.09-10.28,8.89-14.2,10.97-3.21,1.68-3.48,1.71-19.08,1.95l-15.87.25-.91-1.84c-.5-1.01-3.32-8.76-6.27-17.27-2.95-8.5-5.53-15.45-5.74-15.45s-2.94,7.4-6.09,16.36c-3.15,8.96-5.99,16.75-6.33,17.2-.45.59-3.35.81-10.54.81-9.64,0-9.9-.04-10.54-1.46l.12.21ZM125.55,278.61c.64-.71,1.02-1.3.84-1.3s-.84.58-1.48,1.3c-.64.71-1.02,1.3-.84,1.3s.84-.58,1.48-1.3ZM223.21,324.69c-1.59-.93-2.63-4.63-1.88-6.62.81-2.15,3.09-3.73,5.39-3.73s5.59,3.14,5.59,5.17c0,1.88-1.65,4.97-2.92,5.46-1.55.6-4.96.45-6.19-.27v-.02ZM217.31,312.36c-2.6-.78-4.17-2.41-4.99-5.18-1.3-4.4,2.43-9.09,7.26-9.09,4.71,0,8.16,5.71,6.14,10.06-1.65,3.5-5.05,5.21-8.42,4.21h0ZM144.06,254.26c-1.7-1.2-3.35-4.22-3.35-6.13,0-5.21,6.09-8.7,10.86-6.2,4.02,2.1,4.61,8.76,1.05,11.88-2.04,1.77-6.38,2.01-8.55.47v-.02ZM150.94,237.13c-2.09-2.12-2.33-3.77-.93-6.49,2.15-4.21,8.48-3.67,9.96.83.62,1.89.57,2.65-.26,4.26-1.95,3.8-5.78,4.42-8.74,1.41h-.03ZM164.18,229.92c-1.66-1.85-1.52-5.11.29-6.56,3.02-2.47,7.13-.54,7.13,3.35s-4.86,6.07-7.39,3.24l-.04-.03ZM176.19,229.8c-1.39-1.4-.92-4.12.88-5.08,2.81-1.53,5.62,1.22,4.27,4.19-.83,1.83-3.73,2.34-5.15.9h0Z"/>
      <path class="cls-17" d="M54.74,333.2c-1.86-4.33-22.49-69.46-22.17-70.11.23-.37,5.28-.63,12.21-.63h11.82l1.91,6.33c1.05,3.48,3.27,11.04,4.93,16.75,1.66,5.71,3.09,10.45,3.17,10.58.08.1,2.53-6.88,5.44-15.58,2.91-8.7,5.57-16.29,5.91-16.94.55-1.04,1.58-1.14,10.67-.97l10.09.18,5.46,16.36c3.01,9.02,5.62,16.36,5.8,16.36.19,0,2.51-7.4,5.15-16.36l4.8-16.36,7.97-.18c4.39-.1,8.22.07,8.55.37.31.31,2.18.13,4.24-.41,3.97-1.05,6.49-.74,8.16.99,1.43,1.44,1.06,3.95-2.28,15.45-8.61,29.8-11.5,42.13-10.28,44.47,1.35,2.54,3.1,1.69,11.24-5.44l3.64-3.19,2.78,2.8-2.54,2.66c-3.95,4.13-11.63,10.19-15.29,12.07-3.22,1.65-3.66,1.69-19.15,2.02l-15.87.33-.93-1.88c-.51-1.03-3.34-8.83-6.29-17.27-2.95-8.44-5.53-15.45-5.74-15.45s-2.94,7.4-6.09,16.36c-3.15,8.96-5.99,16.75-6.33,17.2-.45.59-3.35.81-10.54.81-9.64,0-9.9-.04-10.54-1.46l.1.14ZM126.06,277.9c1.2-1.25,2.04-2.27,1.86-2.27s-1.3,1.03-2.5,2.27c-1.2,1.25-2.04,2.27-1.86,2.27s1.3-1.03,2.5-2.27ZM125.5,271.89c.8-1.03.78-1.05-.24-.25-1.07.85-1.41,1.38-.88,1.38.13,0,.64-.51,1.12-1.14h0ZM214.81,311.3c-5.2-4.14-2.25-12.66,4.39-12.66,4.89,0,8.22,4.53,6.68,9.15-1.01,3.08-3.42,4.82-6.75,4.82-1.75,0-3.3-.46-4.36-1.31h.04ZM144.13,254.63c-2.17-1.09-4.07-5.13-3.55-7.53.22-1.03,1.28-2.7,2.35-3.73,4.38-4.24,11.5-1.29,11.5,4.78,0,3.51-.78,5.06-3.2,6.32-2.27,1.19-4.92,1.24-7.07.15h-.03Z"/>
      <path class="cls-11" d="M54.74,333.2c-1.86-4.33-22.49-69.46-22.17-70.11.23-.37,5.28-.63,12.21-.63h11.82l1.91,6.33c1.05,3.48,3.27,11.04,4.93,16.75,1.66,5.71,3.09,10.45,3.17,10.58.08.1,2.53-6.88,5.44-15.58,2.91-8.7,5.57-16.29,5.91-16.94.55-1.04,1.58-1.14,10.67-.97l10.09.18,5.46,16.36c3.01,9.02,5.62,16.36,5.8,16.36.19,0,2.51-7.4,5.15-16.36l4.8-16.36,7.97-.18c4.59-.11,8.29.09,8.67.46.52.43,1.81.32,3.95-.33,3.91-1.2,7-.71,8.35,1.3,1.2,1.85,1.04,2.67-4.2,21.1-6.88,24.21-9.45,35.31-8.74,38.1.78,3.17,4.45,1.64,11.18-4.65l4.03-3.77,2.81,2.9-3.21,2.91c-10.92,9.87-16.77,13.5-21.52,13.11-1.39-.1-2.74.02-2.99.28-.25.25-6.04.46-12.85.46h-12.4l-.87-1.79c-.48-.98-3.29-8.7-6.24-17.2-2.95-8.5-5.53-15.45-5.74-15.45s-2.94,7.4-6.09,16.36c-3.15,8.96-5.99,16.75-6.33,17.2-.45.59-3.35.81-10.54.81-9.64,0-9.9-.04-10.54-1.46l.11.24ZM129.27,274.46c0-.49-.58.03-3.24,2.89l-2.87,3.08,3.05-2.89c1.68-1.59,3.05-2.98,3.05-3.08ZM122.85,274.59c1.92-1.96,3.35-3.57,3.17-3.57s-1.89,1.61-3.81,3.57c-1.92,1.96-3.35,3.57-3.17,3.57s1.89-1.61,3.81-3.57Z"/>
      <path class="cls-13" d="M54.29,333.2c-1.87-4.33-22.23-69.46-22.42-70.11,1.23-.26,5.46-.37,12.4-.46l12.85-.15,1.68,6.56c1.05,3.48,3.09,10.97,4.76,16.68,1.67,5.71,3.08,9.93,3.15,10,.08.1,2.07-6.29,5-14.93,2.93-8.64,6.29-18.11,6.32-18.05,7.65-.28,11.44-.14,21.2.26l5.08,16.49c3.02,9.02,5.62,15.32,5.81,15.32.19,0,2.17-6.37,4.82-15.38l4.97-16.55,8.29-.19c4.41-.1,8.22-.32,8.55,0,.32.32-1.47,2.23-3.88,3.64-4.59,2.7-13.94,10.97-13.94,12.33,0,.46.71,1.31,1.58,1.89,1.55,1.03,1.66.97,6.43-3.48,6.62-6.16,9.83-6.88,9.25-2.04-.16,1.3-2.2,8.96-4.53,17.01-7.2,24.93-9.06,36.81-6.31,40.31.7.9,1.43,2.3,1.21,2.52-.22.23-6.31.07-13.17.1l-12.79.07-.73-1.86c-.4-1.02-3.2-8.89-6.17-17.4-2.97-8.5-5.28-15.06-5.48-15.06s-2.85,7.01-6,16.03c-3.15,9.02-5.35,17.53-5.69,17.98-.45.59-4.39.52-11.57.52-9.7,0-9.9.16-10.54-1.27l-.12-.79Z"/>
    </g>
  </g>
  <g>
    <path class="cls-6" d="M538.42,242.11v274.88c0,9.08-7.09,16.42-15.86,16.42h-235.17c-8.76,0-15.86-7.34-15.86-16.42V204.76c0-9.08,7.09-16.43,15.86-16.43h199.14l51.89,53.78Z"/>
    <path class="cls-16" d="M538.41,242.11h-51.89v-53.78l51.89,53.78Z"/>
    <path class="cls-8" d="M486.53,242.11h51.89v53.78l-51.89-53.78Z"/>
    <g>
      <path class="cls-9" d="M315.29,309.09v103.56l89.69,51.78v-103.56l-89.69-51.78Z"/>
      <polygon class="cls-5" points="348.92 289.68 438.6 341.46 404.98 360.87 315.29 309.09 348.92 289.68"/>
      <polygon class="cls-4" points="494.66 309.09 461.03 328.52 461.02 328.52 371.35 276.74 404.98 257.31 494.66 309.09"/>
      <polygon class="cls-3" points="494.66 309.09 494.66 412.66 461.03 432.07 461.03 397.56 438.62 410.5 438.62 445.01 404.98 464.44 404.98 360.87 438.6 341.46 438.62 341.46 438.62 375.97 461.03 363.03 461.03 328.52 494.66 309.09"/>
      <path class="cls-2" d="M371.35,358.65l-22.42-12.95v7.22l22.42,12.95v-7.22Z"/>
      <path class="cls-2" d="M371.35,369.02l-22.42-12.95v9.47l22.42,12.95v-9.47Z"/>
      <path class="cls-2" d="M380.59,398.95l-20.45,15.44-20.46-39.06,9.24,5.34v-11.74l22.42,12.95v11.74l9.24,5.34Z"/>
      <path class="cls-2" d="M339.68,406l40.91,23.62v6.25l-40.91-23.62v-6.25Z"/>
    </g>
  </g>
</svg>